C:\Users\r0593348\3dpredictsim\Results\Batchsim_tmt_linear\Pog_s1_tmt_bCst_d05_k2000_ig24_act_GRF.mot
nRows=12
nColumns=19

name C:\Users\r0593348\3dpredictsim\Results\Batchsim_tmt_linear\Pog_s1_tmt_bCst_d05_k2000_ig24_act_GRF.mot
datacolumns 19
datarows 12
range 0.0000000000 0.1288872567
endheader
time 	ground_force_vx	ground_force_vy	ground_force_vz	ground_force_px	ground_force_py	ground_force_pz	1_ground_force_vx	1_ground_force_vy	1_ground_force_vz	1_ground_force_px	1_ground_force_py	1_ground_force_pz	ground_torque_x	ground_torque_y	ground_torque_z	1_ground_torque_x	1_ground_torque_y	1_ground_torque_z
        0.0000000000	      -70.0592292980	       54.0243037296	       17.5163559339	        0.1687490572	        0.0000000000	        0.0503444057	      106.0832409797	      430.7093801875	       -1.8767568576	       -0.3452048438	        0.0000000000	       -0.0355968087	        0.0000000000	        0.0000000000	        0.0000000000	        0.0000000000	        0.0000000000	        0.0000000000	
        0.0117170233	     -133.9928628876	      137.0411890684	       48.7272854296	        0.1772412799	        0.0000000000	        0.0484458610	       74.2548876602	      330.8843825421	       -7.6836268869	       -0.3381763965	        0.0000000000	       -0.0328671094	        0.0000000000	        0.0000000000	        0.0000000000	        0.0000000000	        0.0000000000	        0.0000000000	
        0.0234340467	      -61.1467560426	      301.2668310133	       19.6888130982	        0.1838013285	        0.0000000000	        0.0467242854	       41.6027653663	      222.5376309949	      -13.8578507207	       -0.3257145393	        0.0000000000	       -0.0274988385	        0.0000000000	        0.0000000000	        0.0000000000	        0.0000000000	        0.0000000000	        0.0000000000	
        0.0351510700	      -54.2496743380	      503.7613759152	       -3.2828924326	        0.1891457914	        0.0000000000	        0.0471741749	       26.0833055965	      167.3289956060	      -14.0508345548	       -0.3170175551	        0.0000000000	       -0.0231022573	        0.0000000000	        0.0000000000	        0.0000000000	        0.0000000000	        0.0000000000	        0.0000000000	
        0.0468680933	      -94.5463839726	      731.1222410311	      -14.2165471232	        0.1990953364	        0.0000000000	        0.0496190077	       22.8024332791	      131.3585175846	      -15.6867578851	       -0.3167155309	        0.0000000000	       -0.0233286876	        0.0000000000	        0.0000000000	        0.0000000000	        0.0000000000	        0.0000000000	        0.0000000000	
        0.0585851167	     -120.6814132537	      853.9903798590	      -20.9345455258	        0.2058259626	        0.0000000000	        0.0511706439	       14.4544581147	       86.2297582168	      -14.1955619409	       -0.3163818046	        0.0000000000	       -0.0233968228	        0.0000000000	        0.0000000000	        0.0000000000	        0.0000000000	        0.0000000000	        0.0000000000	
        0.0703021400	     -126.3603784885	      878.3017778251	      -20.9688877238	        0.2102483832	        0.0000000000	        0.0520869469	        0.4278568675	       35.3625637870	       -7.5111258016	       -0.3168768420	        0.0000000000	       -0.0233106852	        0.0000000000	        0.0000000000	        0.0000000000	        0.0000000000	        0.0000000000	        0.0000000000	
        0.0820191633	     -118.5636394301	      860.5331914575	      -20.3039487473	        0.2139513754	        0.0000000000	        0.0525914701	        0.3083325390	       -0.3147038153	        0.0114643090	        0.0000000000	        0.0000000000	        0.0000000000	        0.0000000000	        0.0000000000	        0.0000000000	        0.0000000000	        0.0000000000	        0.0000000000	
        0.0937361867	     -105.3225523715	      824.5391651255	      -19.8290232646	        0.2178988564	        0.0000000000	        0.0527580482	        0.0012307091	       -0.0010057772	       -0.0000704894	        0.0000000000	        0.0000000000	        0.0000000000	        0.0000000000	        0.0000000000	        0.0000000000	        0.0000000000	        0.0000000000	        0.0000000000	
        0.1054532100	      -92.6255525879	      783.8027296105	      -19.3029666812	        0.2224247391	        0.0000000000	        0.0527109661	        0.0012969575	       -0.0009097596	       -0.0000942185	        0.0000000000	        0.0000000000	        0.0000000000	        0.0000000000	        0.0000000000	        0.0000000000	        0.0000000000	        0.0000000000	        0.0000000000	
        0.1171702333	      -83.2469266117	      749.0840539247	      -19.1157449217	        0.2277571156	        0.0000000000	        0.0524683815	        0.0145544813	       -0.0091009499	       -0.0011430595	        0.0000000000	        0.0000000000	        0.0000000000	        0.0000000000	        0.0000000000	        0.0000000000	        0.0000000000	        0.0000000000	        0.0000000000	
        0.1288872567	      -73.9242135913	      717.8948528803	      -19.1525239779	        0.2330854536	        0.0000000000	        0.0521320182	       -0.1025482921	        0.0586098008	        0.0083722793	        0.0000000000	        0.0000000000	        0.0000000000	        0.0000000000	        0.0000000000	        0.0000000000	        0.0000000000	        0.0000000000	        0.0000000000	
